HIERARCHY
ROOT Hips
{
  OFFSET 0 0 0
  CHANNELS 6 Xposition Yposition Zposition Zrotation Yrotation Xrotation
  JOINT LeftThigh
  {
    OFFSET 8.409438 0 -5.917753
    CHANNELS 3 Zrotation Yrotation Xrotation
    JOINT LeftLeg
    {
      OFFSET 0 0 -42.358652
      CHANNELS 3 Zrotation Yrotation Xrotation
      JOINT LeftFoot
      {
        OFFSET 0 0 -39.357303
        CHANNELS 3 Zrotation Yrotation Xrotation
      }
    }
  }
  JOINT RightThigh
  {
    OFFSET -8.409438 0 -5.917753
    CHANNELS 3 Zrotation Yrotation Xrotation
    JOINT RightLeg
    {
      OFFSET 0 0 -42.358652
      CHANNELS 3 Zrotation Yrotation Xrotation
      JOINT RightFoot
      {
        OFFSET 0 0 -39.357303
        CHANNELS 3 Zrotation Yrotation Xrotation
      }
    }
  }
  JOINT SpineLow
  {
    OFFSET 0 0 4.719101
    CHANNELS 3 Zrotation Yrotation Xrotation
    JOINT SpineMid
    {
      OFFSET 0 0 12.899191
      CHANNELS 3 Zrotation Yrotation Xrotation
      JOINT Chest
      {
        OFFSET 0 0 12.899191
        CHANNELS 3 Zrotation Yrotation Xrotation
        JOINT LeftShoulder
        {
          OFFSET 7.550562 1.41573 9.438202
          CHANNELS 3 Zrotation Yrotation Xrotation
          JOINT LeftArm
          {
            OFFSET 9.155056 0 4.247191
            CHANNELS 3 Zrotation Yrotation Xrotation
            JOINT LeftForearm
            {
              OFFSET 0 0 25.771955
              CHANNELS 3 Zrotation Yrotation Xrotation
              JOINT LeftHand
              {
                OFFSET 0 0 25.197169
                CHANNELS 3 Zrotation Yrotation Xrotation
              }
            }
          }
        }
        JOINT RightShoulder
        {
          OFFSET -7.550562 1.41573 9.438202
          CHANNELS 3 Zrotation Yrotation Xrotation
          JOINT RightArm
          {
            OFFSET -9.155056 0 4.247191
            CHANNELS 3 Zrotation Yrotation Xrotation
            JOINT RightForearm
            {
              OFFSET 0 0 -25.771955
              CHANNELS 3 Zrotation Yrotation Xrotation
              JOINT RightHand
              {
                OFFSET 0 0 -25.197169
                CHANNELS 3 Zrotation Yrotation Xrotation
              }
            }
          }
        }
        JOINT Neck
        {
          OFFSET 0 0 15.101124
          CHANNELS 3 Zrotation Yrotation Xrotation
          JOINT Head
          {
            OFFSET 0 0 11.325843
            CHANNELS 3 Zrotation Yrotation Xrotation
            End Site
            {
              OFFSET 0 0 14.157303
            }
          }
        }
      }
    }
  }
}
MOTION
Frames: 13
Frame Time: 0.0
0.0  89.887642  0.0  3.211133  -19.13199  -93.154925  8.044344  -11.467893  -2.630396  -2.102324  6.463254  18.469016  0.460374  0.373884  1.639393  -3.1418  12.13509  -9.34756  0.426469  7.704079  14.815496  -1.273525  0.118263  -3.329894  0.208402  0.122799  0.602581  0.572669  0.330439  1.648151  0.572669  0.330439  1.648151  -8.296432  21.185294  2.335163  140.249694  42.75614  -169.291291  -10.617314  0.125936  47.22248  89.81475  -1.598745  -1.376268  1.60268  -3.366893  22.423694  77.410667  37.444726  31.832897  -1.830052  4.105012  -25.782351  98.609054  1.017852  -6.478859  -2.321277  -0.472682  -0.597869  -1.741413  -0.352247  -0.450202  
0.0  89.887642  0.0  3.135404  -19.056699  -93.222653  7.959272  -11.374024  -2.650775  -2.035352  6.410536  18.668012  0.39158  0.329864  1.605058  -3.552588  12.346094  -9.405991  -1.283948  7.755616  14.404031  -0.447993  0.169924  -3.233593  0.204623  0.112801  0.599095  0.562076  0.303237  1.638519  0.562076  0.303237  1.638519  -8.359423  21.238791  2.45836  140.209629  42.717316  -169.144258  -10.710143  0.077126  47.067891  89.871462  -1.592443  -1.540167  1.466664  -3.307045  22.459597  78.030915  37.385577  31.992818  -1.935129  4.074168  -25.554411  98.599599  1.026587  -6.477165  -2.399446  -0.406583  -0.552859  -1.799946  -0.302772  -0.416246  
0.0  89.887642  0.0  3.076783  -18.946825  -93.258894  7.738945  -11.333266  -2.747957  -1.9722  6.443117  18.834615  0.351519  0.268927  1.589909  -4.208142  12.468707  -9.552884  -1.468372  7.675947  14.316237  -0.404429  0.120561  -3.236602  0.190894  0.103758  0.601102  0.524334  0.278845  1.643869  0.524334  0.278845  1.643869  -8.398897  21.259322  2.464582  140.174205  42.641608  -169.089122  -10.775502  0.038569  46.960393  89.937833  -1.606494  -1.676268  1.463479  -3.26726  22.471944  78.376785  37.374551  32.011451  -1.897206  4.16136  -25.330326  98.639167  1.017376  -6.402324  -2.453083  -0.365274  -0.51961  -1.840119  -0.271875  -0.39118  
0.0  89.887642  0.0  2.884401  -18.844464  -93.260917  7.525594  -11.455321  -2.845277  -1.94396  6.489798  18.980295  0.307889  0.221059  1.567653  -5.347549  12.396063  -9.894152  -1.556416  7.565548  14.229279  -0.259942  0.096032  -3.205378  0.182859  0.083649  0.614015  0.501915  0.223986  1.678977  0.501915  0.223986  1.678977  -8.554954  21.274691  2.327354  140.174527  42.564938  -169.099063  -10.715533  -0.040589  46.864498  89.949234  -1.575367  -1.821236  1.273449  -3.248798  22.317337  78.993288  37.306585  32.278028  -1.940229  4.252585  -25.16054  98.620373  1.026933  -6.275803  -2.633763  -0.305708  -0.562487  -1.975601  -0.226862  -0.423192  
0.0  89.887642  0.0  2.778634  -18.804338  -93.286747  7.352389  -11.53046  -2.942148  -1.916331  6.562961  19.121758  0.243477  0.181462  1.540408  -6.043983  12.37801  -10.086942  -1.395906  7.481401  14.208467  -0.278958  0.054663  -3.199568  0.17186  0.071827  0.62557  0.471585  0.191871  1.710437  0.471585  0.191871  1.710437  -8.561327  21.30134  2.214938  140.137565  42.509871  -169.10252  -10.695619  -0.111355  46.725841  89.968289  -1.585502  -1.862057  1.33694  -3.249287  22.280149  79.365669  37.323468  32.387116  -1.892161  4.400619  -24.978694  98.58011  0.982324  -6.149707  -2.670286  -0.279844  -0.526653  -2.002953  -0.207587  -0.396221  
0.0  89.887642  0.0  2.647292  -18.759127  -93.308088  7.151569  -11.649796  -3.037745  -1.927539  6.645803  19.270454  0.19376  0.138189  1.484147  -7.013695  12.241437  -10.402842  -1.314256  7.396573  14.227701  -0.258051  0.076801  -3.207268  0.167782  0.061404  0.633971  0.460189  0.163429  1.733317  0.460189  0.163429  1.733317  -8.609272  21.365316  2.104896  140.116632  42.505687  -169.127514  -10.632098  -0.176733  46.547291  89.950148  -1.588684  -1.850149  1.310889  -3.277141  22.233861  79.737763  37.370646  32.520649  -1.805416  4.497831  -24.725075  98.499533  0.816371  -6.093268  -2.838725  -0.242495  -0.516046  -2.129247  -0.179479  -0.38817  
0.0  89.887642  0.0  2.580739  -18.744155  -93.379572  6.983426  -11.741048  -3.067906  -2.022268  6.744013  19.367346  0.204535  0.126556  1.44309  -7.542662  12.19205  -10.555646  -1.335833  7.410392  14.247989  -0.217467  0.073114  -3.188779  0.174864  0.059781  0.639102  0.479515  0.15877  1.747348  0.479515  0.15877  1.747348  -8.628576  21.431913  2.102192  140.095249  42.568067  -169.125032  -10.575638  -0.192358  46.350148  89.91416  -1.603365  -1.828374  1.286248  -3.316965  22.282078  80.107751  37.43481  32.63247  -1.803834  4.454468  -24.501586  98.357667  0.786385  -6.06812  -2.940704  -0.237956  -0.422929  -2.205691  -0.176437  -0.31835  
0.0  89.887642  0.0  2.514067  -18.735263  -93.486179  6.77695  -11.742596  -3.060751  -2.181091  6.793545  19.39333  0.171091  0.106836  1.387319  -8.327763  12.071056  -10.81907  -1.530996  7.461208  14.285502  0.250872  0.130167  -3.11599  0.187489  0.065122  0.636398  0.514156  0.173056  1.740026  0.514156  0.173056  1.740025  -8.642747  21.510301  2.191686  140.070687  42.687768  -169.132547  -10.600836  -0.184747  46.039484  89.86107  -1.559466  -1.862835  1.239579  -3.36189  22.461761  80.422935  37.564907  32.672716  -1.825589  4.303647  -24.210832  98.36056  0.710567  -6.117313  -3.13255  -0.228261  -0.311349  -2.349526  -0.169605  -0.234689  
0.0  89.887642  0.0  2.487597  -18.713625  -93.583286  6.607268  -11.786883  -3.022369  -2.318846  6.863922  19.421911  0.185402  0.089726  1.364367  -8.671633  12.040151  -10.955054  -1.5943  7.532428  14.403123  0.399478  0.098398  -3.07725  0.211519  0.075874  0.631949  0.580104  0.201849  1.728023  0.580104  0.201849  1.728023  -8.715365  21.544661  2.320707  140.109202  42.81867  -169.09217  -10.575692  -0.134755  45.778666  89.859772  -1.575312  -1.857815  1.135647  -3.3929  22.638479  80.753144  37.685755  32.728182  -1.85928  4.137205  -23.917381  98.320438  0.665322  -6.099794  -3.30689  -0.246186  -0.172314  -2.480233  -0.183714  -0.130572  
0.0  89.887642  0.0  2.425408  -18.704829  -93.668817  6.510174  -11.809937  -2.987876  -2.64653  6.937946  19.332151  0.279202  0.079173  1.413586  -9.124255  11.920964  -11.169511  -1.852295  7.580581  14.538169  1.007082  0.19129  -3.00428  0.21609  0.080373  0.62531  0.592694  0.214087  1.709931  0.592694  0.214087  1.709931  -8.737484  21.592528  2.43691  140.221612  42.946227  -169.0544  -10.597271  -0.101041  45.474044  89.864881  -1.595517  -1.839051  1.133426  -3.356573  22.794784  81.16364  37.767391  32.801855  -1.862369  4.060858  -23.596581  98.360993  0.604879  -6.034317  -3.451684  -0.23778  -0.049402  -2.588779  -0.178063  -0.038396  
0.0  89.887642  0.0  2.378427  -18.667648  -93.718763  6.410209  -11.858241  -3.014824  -2.750464  6.966198  19.40747  0.264644  0.032608  1.43271  -9.289686  11.851546  -11.31061  -1.76291  7.57622  14.776588  1.024143  0.198138  -2.980683  0.217976  0.084986  0.618263  0.597945  0.226709  1.690717  0.597945  0.226709  1.690718  -8.732516  21.61205  2.520354  140.306202  43.018127  -169.028253  -10.589214  -0.091263  45.189215  89.863735  -1.619746  -1.818731  1.19081  -3.321433  22.944077  81.591068  37.863541  32.939137  -1.834229  4.110346  -23.275914  98.495477  0.522812  -5.903304  -3.544298  -0.227962  0.078069  -2.658191  -0.171431  0.057232  
0.0  89.887642  0.0  2.279417  -18.777958  -93.827894  6.416864  -11.934621  -3.036015  -2.885206  6.976307  19.496286  0.233417  -0.009347  1.463806  -9.541511  11.670407  -11.441955  -1.201081  7.554858  15.10407  0.914701  0.238967  -2.981171  0.227635  0.087376  0.616561  0.6244  0.23301  1.686119  0.6244  0.23301  1.686119  -8.649461  21.591526  2.620686  140.349149  43.067339  -169.037961  -10.575499  -0.104285  44.916024  89.861414  -1.61566  -1.813573  1.246963  -3.307741  23.07339  82.217336  37.911267  33.218379  -1.782015  4.226057  -22.986428  98.550717  0.438407  -5.719011  -3.579561  -0.221858  0.226176  -2.684585  -0.167725  0.168339  
0.0  89.887642  0.0  2.180209  -18.679195  -93.860312  6.315638  -12.040164  -3.115118  -2.950773  7.005728  19.649404  0.168832  -0.062781  1.486284  -9.665626  11.548445  -11.469312  -1.099586  7.540523  15.302187  0.938948  0.256994  -3.001135  0.227658  0.088815  0.617054  0.624502  0.236939  1.687482  0.624502  0.236939  1.687483  -8.712158  21.555883  2.672925  140.443657  43.118411  -169.020575  -10.512531  -0.132581  44.6981  89.864801  -1.607474  -1.775632  1.228667  -3.302424  23.131872  82.715785  37.974944  33.408811  -1.631402  4.415531  -22.677842  98.531796  0.390258  -5.548929  -3.680231  -0.217524  0.326736  -2.760054  -0.165118  0.243753  
